<svg width="1738" height="256" viewBox="0 0 1738 256" fill="none" xmlns="http://www.w3.org/2000/svg">
<path d="M4 176.574V94.3828L11.7539 106.789L19.5078 119.195V171.922C19.5078 193.334 36.8655 210.691 58.2773 210.691H233.516H236.617L195.242 124.493C188.676 110.814 169.924 109.017 160.88 121.199L137.881 152.178C121.819 173.812 89.1317 172.869 74.3436 150.346L4 43.207V29.25H200.949C229.213 29.25 252.125 52.1622 252.125 80.4258V144.783L236.617 111.441V83.5273C236.617 62.1155 219.259 44.7578 197.848 44.7578H25.7109L89.3756 140.879C96.9683 152.342 113.556 153.009 122.044 142.191L146.893 110.521C163.929 88.8083 197.843 92.54 209.75 117.438L252.125 206.039V227.75H55.1758C26.9122 227.75 4 204.838 4 176.574Z" fill="#4377F2"/>
<path d="M4 94.3828L6.63012 92.739C5.89679 91.5657 4.47497 91.02 3.14495 91.4014C1.81493 91.7829 0.898438 92.9992 0.898438 94.3828H4ZM252.125 227.75V230.852C253.838 230.852 255.227 229.463 255.227 227.75H252.125ZM252.125 206.039H255.227C255.227 205.576 255.123 205.119 254.923 204.701L252.125 206.039ZM209.75 117.438L212.548 116.1L209.75 117.438ZM236.617 210.691V213.793C237.683 213.793 238.675 213.245 239.242 212.343C239.81 211.441 239.875 210.31 239.413 209.349L236.617 210.691ZM195.242 124.493L198.038 123.15L195.242 124.493ZM19.5078 119.195H22.6094V118.306L22.1379 117.551L19.5078 119.195ZM4 29.25V26.1484H0.898438V29.25H4ZM4 43.207H0.898438V44.1342L1.40732 44.9093L4 43.207ZM74.3436 150.346L76.9363 148.643L74.3436 150.346ZM25.7109 44.7578V41.6562C24.5688 41.6562 23.519 42.284 22.9786 43.2902C22.4381 44.2964 22.4944 45.5182 23.1251 46.4705L25.7109 44.7578ZM89.3756 140.879L86.7898 142.592L89.3756 140.879ZM122.044 142.191L124.484 144.106L122.044 142.191ZM146.893 110.521L149.333 112.436L146.893 110.521ZM137.881 152.178L135.39 150.329L137.881 152.178ZM160.88 121.199L158.39 119.35V119.35L160.88 121.199ZM252.125 144.783L249.313 146.091C249.926 147.41 251.374 148.126 252.795 147.812C254.215 147.497 255.227 146.238 255.227 144.783H252.125ZM236.617 111.441H233.516V112.127L233.805 112.749L236.617 111.441ZM0.898438 94.3828V176.574H7.10156V94.3828H0.898438ZM55.1758 230.852H252.125V224.648H55.1758V230.852ZM255.227 227.75V206.039H249.023V227.75H255.227ZM254.923 204.701L212.548 116.1L206.952 118.776L249.327 207.377L254.923 204.701ZM239.413 209.349L198.038 123.15L192.446 125.835L233.821 212.034L239.413 209.349ZM236.617 207.59H233.516V213.793H236.617V207.59ZM233.516 207.59H58.2773V213.793H233.516V207.59ZM22.6094 171.922V119.195H16.4062V171.922H22.6094ZM200.949 26.1484H4V32.3516H200.949V26.1484ZM0.898438 29.25V43.207H7.10156V29.25H0.898438ZM1.40732 44.9093L71.7509 152.048L76.9363 148.643L6.59268 41.5048L1.40732 44.9093ZM25.7109 47.8594H197.848V41.6562H25.7109V47.8594ZM23.1251 46.4705L86.7898 142.592L91.9614 139.166L28.2967 43.0451L23.1251 46.4705ZM124.484 144.106L149.333 112.436L144.453 108.607L119.604 140.277L124.484 144.106ZM140.371 154.027L163.37 123.048L158.39 119.35L135.39 150.329L140.371 154.027ZM22.1379 117.551L14.384 105.145L9.12379 108.433L16.8777 120.839L22.1379 117.551ZM14.384 105.145L6.63012 92.739L1.36988 96.0266L9.12379 108.433L14.384 105.145ZM249.023 80.4258V144.783H255.227V80.4258H249.023ZM233.516 83.5273V111.441H239.719V83.5273H233.516ZM233.805 112.749L249.313 146.091L254.937 143.475L239.429 110.133L233.805 112.749ZM86.7898 142.592C95.5506 155.819 114.691 156.588 124.484 144.106L119.604 140.277C112.422 149.43 98.386 148.866 91.9614 139.166L86.7898 142.592ZM71.7509 152.048C87.7221 176.373 123.024 177.391 140.371 154.027L135.39 150.329C120.614 170.232 90.5414 169.365 76.9363 148.643L71.7509 152.048ZM200.949 32.3516C227.5 32.3516 249.023 53.8751 249.023 80.4258H255.227C255.227 50.4492 230.926 26.1484 200.949 26.1484V32.3516ZM58.2773 207.59C38.5785 207.59 22.6094 191.621 22.6094 171.922H16.4062C16.4062 195.047 35.1526 213.793 58.2773 213.793V207.59ZM197.848 47.8594C217.547 47.8594 233.516 63.8285 233.516 83.5273H239.719C239.719 60.4026 220.972 41.6562 197.848 41.6562V47.8594ZM212.548 116.1C199.649 89.127 162.909 85.0844 144.453 108.607L149.333 112.436C164.95 92.5323 196.037 95.953 206.952 118.776L212.548 116.1ZM198.038 123.15C190.462 107.368 168.825 105.294 158.39 119.35L163.37 123.048C171.023 112.74 186.89 114.261 192.446 125.835L198.038 123.15ZM0.898438 176.574C0.898438 206.551 25.1992 230.852 55.1758 230.852V224.648C28.6251 224.648 7.10156 203.125 7.10156 176.574H0.898438Z" fill="#4377F2"/>
<path d="M379.064 206V85.016H331.352V56.9H461.282V85.016H413.57V206H379.064ZM479.848 206V56.9H544.387C557.735 56.9 569.237 59.101 578.893 63.503C588.549 67.763 596.004 73.94 601.258 82.034C606.512 90.128 609.139 99.784 609.139 111.002C609.139 122.078 606.512 131.663 601.258 139.757C596.004 147.709 588.549 153.815 578.893 158.075C569.237 162.335 557.735 164.465 544.387 164.465H499.018L514.354 149.342V206H479.848ZM574.633 206L537.358 151.898H574.207L611.908 206H574.633ZM514.354 153.176L499.018 136.988H542.47C553.12 136.988 561.072 134.716 566.326 130.172C571.58 125.486 574.207 119.096 574.207 111.002C574.207 102.766 571.58 96.376 566.326 91.832C561.072 87.288 553.12 85.016 542.47 85.016H499.018L514.354 68.615V153.176ZM616.882 206L683.338 56.9H717.418L784.087 206H747.877L693.349 74.366H706.981L652.24 206H616.882ZM650.11 174.05L659.269 147.851H735.949L745.321 174.05H650.11ZM868.831 208.556C857.329 208.556 846.608 206.71 836.668 203.018C826.87 199.184 818.35 193.788 811.108 186.83C803.866 179.872 798.186 171.707 794.068 162.335C790.092 152.963 788.104 142.668 788.104 131.45C788.104 120.232 790.092 109.937 794.068 100.565C798.186 91.193 803.866 83.028 811.108 76.07C818.492 69.112 827.083 63.787 836.881 60.095C846.679 56.261 857.4 54.344 869.044 54.344C881.966 54.344 893.61 56.616 903.976 61.16C914.484 65.562 923.288 72.094 930.388 80.756L908.236 101.204C903.124 95.382 897.444 91.051 891.196 88.211C884.948 85.229 878.132 83.738 870.748 83.738C863.79 83.738 857.4 84.874 851.578 87.146C845.756 89.418 840.715 92.684 836.455 96.944C832.195 101.204 828.858 106.245 826.444 112.067C824.172 117.889 823.036 124.35 823.036 131.45C823.036 138.55 824.172 145.011 826.444 150.833C828.858 156.655 832.195 161.696 836.455 165.956C840.715 170.216 845.756 173.482 851.578 175.754C857.4 178.026 863.79 179.162 870.748 179.162C878.132 179.162 884.948 177.742 891.196 174.902C897.444 171.92 903.124 167.447 908.236 161.483L930.388 181.931C923.288 190.593 914.484 197.196 903.976 201.74C893.61 206.284 881.895 208.556 868.831 208.556ZM984.575 171.92L982.658 132.089L1054.01 56.9H1092.35L1028.03 126.125L1008.86 146.573L984.575 171.92ZM953.69 206V56.9H987.983V206H953.69ZM1055.72 206L1002.68 141.035L1025.26 116.54L1095.97 206H1055.72ZM1138.62 206L1089.84 56.9H1125.62L1168.01 188.96H1150.12L1194.42 56.9H1226.37L1268.97 188.96H1251.72L1295.17 56.9H1328.19L1279.41 206H1242.35L1204.65 90.128H1214.44L1175.68 206H1138.62ZM1382.43 206V145.082L1390.31 165.956L1324.71 56.9H1361.34L1411.61 140.609H1390.52L1441.01 56.9H1474.87L1409.27 165.956L1416.94 145.082V206H1382.43ZM1535.18 208.556C1523.25 208.556 1511.82 206.994 1500.89 203.87C1489.95 200.604 1481.15 196.415 1474.47 191.303L1486.19 165.317C1492.58 169.861 1500.11 173.624 1508.77 176.606C1517.57 179.446 1526.45 180.866 1535.39 180.866C1542.21 180.866 1547.68 180.227 1551.79 178.949C1556.05 177.529 1559.18 175.612 1561.17 173.198C1563.15 170.784 1564.15 168.015 1564.15 164.891C1564.15 160.915 1562.59 157.791 1559.46 155.519C1556.34 153.105 1552.22 151.188 1547.11 149.768C1542 148.206 1536.32 146.786 1530.07 145.508C1523.96 144.088 1517.78 142.384 1511.54 140.396C1505.43 138.408 1499.82 135.852 1494.71 132.728C1489.6 129.604 1485.41 125.486 1482.14 120.374C1479.02 115.262 1477.46 108.73 1477.46 100.778C1477.46 92.258 1479.73 84.519 1484.27 77.561C1488.96 70.461 1495.92 64.852 1505.15 60.734C1514.52 56.474 1526.23 54.344 1540.29 54.344C1549.66 54.344 1558.89 55.48 1567.98 57.752C1577.07 59.882 1585.09 63.148 1592.05 67.55L1581.4 93.749C1574.44 89.773 1567.48 86.862 1560.53 85.016C1553.57 83.028 1546.75 82.034 1540.08 82.034C1533.4 82.034 1527.94 82.815 1523.68 84.377C1519.42 85.939 1516.36 87.998 1514.52 90.554C1512.67 92.968 1511.75 95.808 1511.75 99.074C1511.75 102.908 1513.31 106.032 1516.44 108.446C1519.56 110.718 1523.68 112.564 1528.79 113.984C1533.9 115.404 1539.51 116.824 1545.62 118.244C1551.86 119.664 1558.04 121.297 1564.15 123.143C1570.4 124.989 1576.08 127.474 1581.19 130.598C1586.3 133.722 1590.42 137.84 1593.54 142.952C1596.81 148.064 1598.44 154.525 1598.44 162.335C1598.44 170.713 1596.1 178.381 1591.41 185.339C1586.73 192.297 1579.7 197.906 1570.32 202.166C1561.09 206.426 1549.38 208.556 1535.18 208.556ZM1653.76 116.966H1725.54V143.804H1653.76V116.966ZM1656.31 178.31H1737.46V206H1622.02V56.9H1734.7V84.59H1656.31V178.31Z" fill="black"/>
</svg>
