<svg width="327" height="48" viewBox="0 0 327 48" fill="none" xmlns="http://www.w3.org/2000/svg">
<path d="M1 33.1077V17.6968L2.45386 20.0229L3.90771 22.3491V32.2354C3.90771 36.2501 7.16229 39.5046 11.177 39.5046H44.0342H44.6157L36.8578 23.3424C35.6268 20.7777 32.1108 20.4407 30.415 22.7248L26.1026 28.5334C23.0911 32.5897 16.9622 32.413 14.1894 28.1898L1 8.10132V5.48438H37.928C43.2274 5.48438 47.5234 9.78041 47.5234 15.0798V27.1469L44.6157 20.8953V15.6614C44.6157 11.6467 41.3612 8.39209 37.3464 8.39209H5.0708L17.0079 26.4148C18.4316 28.5642 21.5418 28.6891 23.1333 26.6608L27.7924 20.7227C30.9867 16.6516 37.3455 17.3512 39.5782 22.0196L47.5234 38.6323V42.7031H10.5955C5.29603 42.7031 1 38.4071 1 33.1077Z" fill="#4377F2"/>
<path d="M1 17.6968L1.49315 17.3886C1.35565 17.1686 1.08906 17.0662 0.839679 17.1378C0.5903 17.2093 0.418457 17.4373 0.418457 17.6968H1ZM47.5234 42.7031V43.2847C47.8446 43.2847 48.105 43.0243 48.105 42.7031H47.5234ZM47.5234 38.6323H48.105C48.105 38.5455 48.0855 38.4598 48.0481 38.3814L47.5234 38.6323ZM39.5782 22.0196L39.0536 22.2705L39.5782 22.0196ZM44.6157 39.5046V40.0862C44.8156 40.0862 45.0015 39.9835 45.1079 39.8144C45.2144 39.6452 45.2265 39.4332 45.14 39.253L44.6157 39.5046ZM36.8578 23.3424L36.3336 23.594L36.8578 23.3424ZM3.90771 22.3491H4.48926V22.1823L4.40086 22.0409L3.90771 22.3491ZM1 5.48438V4.90283H0.418457V5.48438H1ZM1 8.10132H0.418457V8.27517L0.513873 8.42049L1 8.10132ZM14.1894 28.1898L14.6756 27.8707L14.1894 28.1898ZM5.0708 8.39209V7.81055C4.85664 7.81055 4.65982 7.92825 4.55848 8.11691C4.45715 8.30558 4.4677 8.53467 4.58596 8.71322L5.0708 8.39209ZM17.0079 26.4148L16.5231 26.7359L17.0079 26.4148ZM23.1333 26.6608L22.6758 26.3019L23.1333 26.6608ZM27.7924 20.7227L28.2499 21.0817L27.7924 20.7227ZM26.1026 28.5334L25.6357 28.1867V28.1867L26.1026 28.5334ZM30.415 22.7248L30.8819 23.0715V23.0715L30.415 22.7248ZM47.5234 27.1469L46.9961 27.3921C47.1112 27.6394 47.3827 27.7736 47.649 27.7147C47.9154 27.6558 48.105 27.4196 48.105 27.1469H47.5234ZM44.6157 20.8953H44.0342V21.0239L44.0884 21.1405L44.6157 20.8953ZM0.418457 17.6968V33.1077H1.58154V17.6968H0.418457ZM10.5955 43.2847H47.5234V42.1216H10.5955V43.2847ZM48.105 42.7031V38.6323H46.9419V42.7031H48.105ZM48.0481 38.3814L40.1028 21.7687L39.0536 22.2705L46.9988 38.8832L48.0481 38.3814ZM45.14 39.253L37.3821 23.0907L36.3336 23.594L44.0914 39.7563L45.14 39.253ZM44.6157 38.9231H44.0342V40.0862H44.6157V38.9231ZM44.0342 38.9231H11.177V40.0862H44.0342V38.9231ZM4.48926 32.2354V22.3491H3.32617V32.2354H4.48926ZM37.928 4.90283H1V6.06592H37.928V4.90283ZM0.418457 5.48438V8.10132H1.58154V5.48438H0.418457ZM0.513873 8.42049L13.7033 28.509L14.6756 27.8707L1.48613 7.78214L0.513873 8.42049ZM5.0708 8.97363H37.3464V7.81055H5.0708V8.97363ZM4.58596 8.71322L16.5231 26.7359L17.4928 26.0937L5.55564 8.07096L4.58596 8.71322ZM23.5908 27.0198L28.2499 21.0817L27.3349 20.3638L22.6758 26.3019L23.5908 27.0198ZM26.5695 28.88L30.8819 23.0715L29.9481 22.3782L25.6357 28.1867L26.5695 28.88ZM4.40086 22.0409L2.947 19.7147L1.96071 20.3312L3.41457 22.6573L4.40086 22.0409ZM2.947 19.7147L1.49315 17.3886L0.506853 18.005L1.96071 20.3312L2.947 19.7147ZM46.9419 15.0798V27.1469H48.105V15.0798H46.9419ZM44.0342 15.6614V20.8953H45.1973V15.6614H44.0342ZM44.0884 21.1405L46.9961 27.3921L48.0507 26.9016L45.143 20.65L44.0884 21.1405ZM16.5231 26.7359C18.1657 29.216 21.7545 29.3602 23.5908 27.0198L22.6758 26.3019C21.3292 28.0181 18.6974 27.9124 17.4928 26.0937L16.5231 26.7359ZM13.7033 28.509C16.6979 33.07 23.3171 33.2609 26.5695 28.88L25.6357 28.1867C22.8651 31.9186 17.2265 31.756 14.6756 27.8707L13.7033 28.509ZM37.928 6.06592C42.9062 6.06592 46.9419 10.1016 46.9419 15.0798H48.105C48.105 9.45923 43.5486 4.90283 37.928 4.90283V6.06592ZM11.177 38.9231C7.48346 38.9231 4.48926 35.9289 4.48926 32.2354H3.32617C3.32617 36.5712 6.84111 40.0862 11.177 40.0862V38.9231ZM37.3464 8.97363C41.04 8.97363 44.0342 11.9678 44.0342 15.6614H45.1973C45.1973 11.3255 41.6823 7.81055 37.3464 7.81055V8.97363ZM40.1028 21.7687C37.6841 16.7113 30.7954 15.9533 27.3349 20.3638L28.2499 21.0817C31.178 17.3498 37.007 17.9912 39.0536 22.2705L40.1028 21.7687ZM37.3821 23.0907C35.9617 20.1315 31.9047 19.7427 29.9481 22.3782L30.8819 23.0715C32.3168 21.1388 35.2919 21.4239 36.3336 23.594L37.3821 23.0907ZM0.418457 33.1077C0.418457 38.7283 4.97486 43.2847 10.5955 43.2847V42.1216C5.61721 42.1216 1.58154 38.0859 1.58154 33.1077H0.418457Z" fill="#4377F2"/>
<path d="M71.3245 39V16.3155H62.3785V11.0437H86.7404V16.3155H77.7944V39H71.3245ZM90.2215 39V11.0437H102.323C104.825 11.0437 106.982 11.4564 108.792 12.2818C110.603 13.0806 112.001 14.2387 112.986 15.7564C113.971 17.274 114.464 19.0845 114.464 21.1879C114.464 23.2646 113.971 25.0618 112.986 26.5794C112.001 28.0704 110.603 29.2153 108.792 30.0141C106.982 30.8128 104.825 31.2122 102.323 31.2122H93.8159L96.6914 28.3766V39H90.2215ZM107.994 39L101.005 28.8559H107.914L114.983 39H107.994ZM96.6914 29.0955L93.8159 26.0602H101.963C103.96 26.0602 105.451 25.6342 106.436 24.7822C107.421 23.9036 107.914 22.7055 107.914 21.1879C107.914 19.6436 107.421 18.4455 106.436 17.5935C105.451 16.7415 103.96 16.3155 101.963 16.3155H93.8159L96.6914 13.2403V29.0955ZM115.915 39L128.376 11.0437H134.766L147.266 39H140.477L130.253 14.3186H132.809L122.545 39H115.915ZM122.146 33.0094L123.863 28.0971H138.24L139.998 33.0094H122.146ZM163.156 39.4793C160.999 39.4793 158.989 39.1331 157.125 38.4409C155.288 37.722 153.691 36.7102 152.333 35.4056C150.975 34.101 149.91 32.5701 149.138 30.8128C148.392 29.0556 148.019 27.1252 148.019 25.0219C148.019 22.9185 148.392 20.9882 149.138 19.2309C149.91 17.4737 150.975 15.9427 152.333 14.6381C153.717 13.3335 155.328 12.3351 157.165 11.6428C159.002 10.9239 161.012 10.5645 163.196 10.5645C165.619 10.5645 167.802 10.9905 169.745 11.8425C171.716 12.6679 173.366 13.8926 174.698 15.5168L170.544 19.3507C169.586 18.2591 168.521 17.4471 167.349 16.9146C166.178 16.3554 164.9 16.0759 163.515 16.0759C162.211 16.0759 161.012 16.2889 159.921 16.7149C158.829 17.1409 157.884 17.7532 157.085 18.552C156.287 19.3507 155.661 20.2959 155.208 21.3876C154.782 22.4792 154.569 23.6906 154.569 25.0219C154.569 26.3531 154.782 27.5646 155.208 28.6562C155.661 29.7478 156.287 30.693 157.085 31.4917C157.884 32.2905 158.829 32.9029 159.921 33.3289C161.012 33.7549 162.211 33.9679 163.515 33.9679C164.9 33.9679 166.178 33.7016 167.349 33.1691C168.521 32.61 169.586 31.7713 170.544 30.6531L174.698 34.4871C173.366 36.1112 171.716 37.3492 169.745 38.2012C167.802 39.0532 165.605 39.4793 163.156 39.4793ZM184.858 32.61L184.498 25.1417L197.877 11.0437H205.066L193.005 24.0234L189.411 27.8574L184.858 32.61ZM179.067 39V11.0437H185.497V39H179.067ZM198.197 39L188.252 26.8191L192.486 22.2262L205.745 39H198.197ZM213.74 39L204.595 11.0437H211.304L219.252 35.805H215.897L224.204 11.0437H230.195L238.182 35.805H234.947L243.094 11.0437H249.285L240.139 39H233.19L226.121 17.274H227.958L220.69 39H213.74ZM259.456 39V27.5779L260.933 31.4917L248.633 11.0437H255.502L264.927 26.7392H260.973L270.439 11.0437H276.789L264.488 31.4917L265.926 27.5779V39H259.456ZM288.096 39.4793C285.86 39.4793 283.716 39.1864 281.666 38.6006C279.616 37.9882 277.965 37.2028 276.714 36.2443L278.911 31.3719C280.109 32.2239 281.52 32.9295 283.144 33.4886C284.795 34.0211 286.459 34.2874 288.136 34.2874C289.414 34.2874 290.439 34.1676 291.211 33.9279C292.01 33.6617 292.596 33.3022 292.969 32.8496C293.341 32.397 293.528 31.8778 293.528 31.2921C293.528 30.5466 293.235 29.9608 292.649 29.5348C292.063 29.0822 291.291 28.7227 290.333 28.4565C289.374 28.1636 288.309 27.8974 287.138 27.6577C285.993 27.3915 284.835 27.072 283.663 26.6992C282.518 26.3265 281.467 25.8472 280.508 25.2615C279.55 24.6757 278.764 23.9036 278.152 22.9451C277.566 21.9866 277.273 20.7619 277.273 19.2709C277.273 17.6734 277.699 16.2223 278.551 14.9177C279.43 13.5864 280.734 12.5347 282.465 11.7626C284.222 10.9639 286.419 10.5645 289.055 10.5645C290.812 10.5645 292.543 10.7775 294.247 11.2035C295.951 11.6029 297.455 12.2152 298.76 13.0406L296.763 17.9529C295.458 17.2074 294.153 16.6616 292.849 16.3155C291.544 15.9427 290.266 15.7564 289.015 15.7564C287.763 15.7564 286.738 15.9028 285.94 16.1957C285.141 16.4886 284.568 16.8746 284.222 17.3539C283.876 17.8065 283.703 18.339 283.703 18.9514C283.703 19.6702 283.996 20.256 284.582 20.7086C285.167 21.1346 285.94 21.4807 286.898 21.747C287.857 22.0132 288.908 22.2795 290.053 22.5457C291.225 22.812 292.383 23.1182 293.528 23.4643C294.699 23.8104 295.764 24.2764 296.723 24.8621C297.681 25.4479 298.453 26.22 299.039 27.1785C299.651 28.137 299.958 29.3484 299.958 30.8128C299.958 32.3837 299.518 33.8214 298.64 35.1261C297.761 36.4307 296.443 37.4824 294.686 38.2811C292.955 39.0799 290.759 39.4793 288.096 39.4793ZM310.329 22.3061H323.788V27.3382H310.329V22.3061ZM310.808 33.8081H326.025V39H304.379V11.0437H325.505V16.2356H310.808V33.8081Z" fill="black"/>
</svg>
