<svg width="435" height="64" viewBox="0 0 435 64" fill="none" xmlns="http://www.w3.org/2000/svg">
<path d="M1 44.1436V23.5957L2.93848 26.6973L4.87695 29.7988V42.9805C4.87695 48.3334 9.21638 52.6729 14.5693 52.6729H58.3789H59.1543L48.8104 31.1231C47.1691 27.7036 42.4811 27.2543 40.22 30.2997L34.4701 38.0445C30.4548 43.453 22.2829 43.2173 18.5859 37.5864L1 10.8018V7.3125H50.2373C57.3032 7.3125 63.0312 13.0405 63.0312 20.1064V36.1958L59.1543 27.8604V20.8818C59.1543 15.5289 54.8149 11.1895 49.4619 11.1895H6.42773L22.3439 35.2197C24.2421 38.0856 28.3891 38.2522 30.511 35.5478L36.7232 27.6303C40.9823 22.2021 49.4607 23.135 52.4376 29.3594L63.0312 51.5098V56.9375H13.7939C6.72804 56.9375 1 51.2095 1 44.1436Z" fill="#4377F2"/>
<path d="M1 23.5957L1.65753 23.1847C1.4742 22.8914 1.11874 22.755 0.786238 22.8504C0.453734 22.9457 0.224609 23.2498 0.224609 23.5957H1ZM63.0312 56.9375V57.7129C63.4595 57.7129 63.8066 57.3657 63.8066 56.9375H63.0312ZM63.0312 51.5098H63.8066C63.8066 51.394 63.7807 51.2797 63.7308 51.1752L63.0312 51.5098ZM52.4376 29.3594L53.1371 29.0249L52.4376 29.3594ZM59.1543 52.6729V53.4482C59.4208 53.4482 59.6686 53.3114 59.8106 53.0858C59.9525 52.8602 59.9687 52.5776 59.8533 52.3373L59.1543 52.6729ZM48.8104 31.1231L49.5095 30.7876L48.8104 31.1231ZM4.87695 29.7988H5.65234V29.5764L5.53448 29.3879L4.87695 29.7988ZM1 7.3125V6.53711H0.224609V7.3125H1ZM1 10.8018H0.224609V11.0336L0.35183 11.2273L1 10.8018ZM18.5859 37.5864L19.2341 37.1609L18.5859 37.5864ZM6.42773 11.1895V10.4141C6.14219 10.4141 5.87976 10.571 5.74464 10.8226C5.60953 11.0741 5.62361 11.3796 5.78128 11.6176L6.42773 11.1895ZM22.3439 35.2197L21.6974 35.6479L22.3439 35.2197ZM30.511 35.5478L31.1211 36.0264L30.511 35.5478ZM36.7232 27.6303L37.3332 28.109L36.7232 27.6303ZM34.4701 38.0445L33.8476 37.5823L34.4701 38.0445ZM40.22 30.2997L39.5975 29.8375V29.8375L40.22 30.2997ZM63.0312 36.1958L62.3282 36.5228C62.4816 36.8526 62.8436 37.0314 63.1987 36.9529C63.5538 36.8743 63.8066 36.5595 63.8066 36.1958H63.0312ZM59.1543 27.8604H58.3789V28.0319L58.4512 28.1874L59.1543 27.8604ZM0.224609 23.5957V44.1436H1.77539V23.5957H0.224609ZM13.7939 57.7129H63.0312V56.1621H13.7939V57.7129ZM63.8066 56.9375V51.5098H62.2559V56.9375H63.8066ZM63.7308 51.1752L53.1371 29.0249L51.7381 29.694L62.3317 51.8443L63.7308 51.1752ZM59.8533 52.3373L49.5095 30.7876L48.1114 31.4587L58.4553 53.0084L59.8533 52.3373ZM59.1543 51.8975H58.3789V53.4482H59.1543V51.8975ZM58.3789 51.8975H14.5693V53.4482H58.3789V51.8975ZM5.65234 42.9805V29.7988H4.10156V42.9805H5.65234ZM50.2373 6.53711H1V8.08789H50.2373V6.53711ZM0.224609 7.3125V10.8018H1.77539V7.3125H0.224609ZM0.35183 11.2273L17.9377 38.012L19.2341 37.1609L1.64817 10.3762L0.35183 11.2273ZM6.42773 11.9648H49.4619V10.4141H6.42773V11.9648ZM5.78128 11.6176L21.6974 35.6479L22.9904 34.7916L7.07419 10.7613L5.78128 11.6176ZM31.1211 36.0264L37.3332 28.109L36.1132 27.1517L29.901 35.0691L31.1211 36.0264ZM35.0927 38.5067L40.8426 30.762L39.5975 29.8375L33.8476 37.5823L35.0927 38.5067ZM5.53448 29.3879L3.59601 26.2863L2.28095 27.1082L4.21942 30.2098L5.53448 29.3879ZM3.59601 26.2863L1.65753 23.1847L0.34247 24.0067L2.28095 27.1082L3.59601 26.2863ZM62.2559 20.1064V36.1958H63.8066V20.1064H62.2559ZM58.3789 20.8818V27.8604H59.9297V20.8818H58.3789ZM58.4512 28.1874L62.3282 36.5228L63.7343 35.8688L59.8574 27.5333L58.4512 28.1874ZM21.6974 35.6479C23.8876 38.9547 28.6727 39.1469 31.1211 36.0264L29.901 35.0691C28.1055 37.3575 24.5965 37.2165 22.9904 34.7916L21.6974 35.6479ZM17.9377 38.012C21.9305 44.0933 30.7561 44.3478 35.0927 38.5067L33.8476 37.5823C30.1534 42.5581 22.6353 42.3413 19.2341 37.1609L17.9377 38.012ZM50.2373 8.08789C56.875 8.08789 62.2559 13.4688 62.2559 20.1064H63.8066C63.8066 12.6123 57.7314 6.53711 50.2373 6.53711V8.08789ZM14.5693 51.8975C9.64462 51.8975 5.65234 47.9052 5.65234 42.9805H4.10156C4.10156 48.7617 8.78815 53.4482 14.5693 53.4482V51.8975ZM49.4619 11.9648C54.3866 11.9648 58.3789 15.9571 58.3789 20.8818H59.9297C59.9297 15.1006 55.2431 10.4141 49.4619 10.4141V11.9648ZM53.1371 29.0249C49.9121 22.2817 40.7272 21.2711 36.1132 27.1517L37.3332 28.109C41.2374 23.1331 49.0093 23.9882 51.7381 29.694L53.1371 29.0249ZM49.5095 30.7876C47.6156 26.842 42.2063 26.3235 39.5975 29.8375L40.8426 30.762C42.7558 28.185 46.7225 28.5652 48.1114 31.4587L49.5095 30.7876ZM0.224609 44.1436C0.224609 51.6377 6.29981 57.7129 13.7939 57.7129V56.1621C7.15628 56.1621 1.77539 50.7812 1.77539 44.1436H0.224609Z" fill="#4377F2"/>
<path d="M94.766 52V21.754H82.838V14.725H115.321V21.754H103.393V52H94.766ZM119.962 52V14.725H136.097C139.434 14.725 142.309 15.2752 144.723 16.3757C147.137 17.4407 149.001 18.985 150.314 21.0085C151.628 23.032 152.285 25.446 152.285 28.2505C152.285 31.0195 151.628 33.4157 150.314 35.4392C149.001 37.4272 147.137 38.9537 144.723 40.0187C142.309 41.0837 139.434 41.6162 136.097 41.6162H124.754L128.588 37.8355V52H119.962ZM143.658 52L134.339 38.4745H143.552L152.977 52H143.658ZM128.588 38.794L124.754 34.747H135.617C138.28 34.747 140.268 34.179 141.581 33.043C142.895 31.8715 143.552 30.274 143.552 28.2505C143.552 26.1915 142.895 24.594 141.581 23.458C140.268 22.322 138.28 21.754 135.617 21.754H124.754L128.588 17.6537V38.794ZM154.22 52L170.834 14.725H179.354L196.022 52H186.969L173.337 19.0915H176.745L163.06 52H154.22ZM162.527 44.0125L164.817 37.4627H183.987L186.33 44.0125H162.527ZM217.208 52.639C214.332 52.639 211.652 52.1775 209.167 51.2545C206.717 50.296 204.587 48.947 202.777 47.2075C200.966 45.468 199.546 43.4267 198.517 41.0837C197.523 38.7407 197.026 36.167 197.026 33.3625C197.026 30.558 197.523 27.9842 198.517 25.6412C199.546 23.2982 200.966 21.257 202.777 19.5175C204.623 17.778 206.771 16.4467 209.22 15.5237C211.67 14.5652 214.35 14.086 217.261 14.086C220.491 14.086 223.402 14.654 225.994 15.79C228.621 16.8905 230.822 18.5235 232.597 20.689L227.059 25.801C225.781 24.3455 224.361 23.2627 222.799 22.5527C221.237 21.8072 219.533 21.4345 217.687 21.4345C215.947 21.4345 214.35 21.7185 212.894 22.2865C211.439 22.8545 210.179 23.671 209.114 24.736C208.049 25.801 207.214 27.0612 206.611 28.5167C206.043 29.9722 205.759 31.5875 205.759 33.3625C205.759 35.1375 206.043 36.7527 206.611 38.2082C207.214 39.6637 208.049 40.924 209.114 41.989C210.179 43.054 211.439 43.8705 212.894 44.4385C214.35 45.0065 215.947 45.2905 217.687 45.2905C219.533 45.2905 221.237 44.9355 222.799 44.2255C224.361 43.48 225.781 42.3617 227.059 40.8707L232.597 45.9827C230.822 48.1482 228.621 49.799 225.994 50.935C223.402 52.071 220.474 52.639 217.208 52.639ZM246.144 43.48L245.664 33.5222L263.503 14.725H273.088L257.007 32.0312L252.214 37.1432L246.144 43.48ZM238.422 52V14.725H246.996V52H238.422ZM263.929 52L250.67 35.7587L256.314 29.635L273.993 52H263.929ZM284.654 52L272.46 14.725H281.406L292.002 47.74H287.529L298.605 14.725H306.593L317.243 47.74H312.93L323.793 14.725H332.046L319.852 52H310.587L301.161 23.032H303.611L293.919 52H284.654ZM345.608 52V36.7705L347.578 41.989L331.177 14.725H340.336L352.903 35.6522H347.631L360.251 14.725H368.718L352.317 41.989L354.234 36.7705V52H345.608ZM383.795 52.639C380.813 52.639 377.955 52.2485 375.222 51.4675C372.488 50.651 370.287 49.6037 368.619 48.3257L371.547 41.8292C373.145 42.9652 375.026 43.906 377.192 44.6515C379.393 45.3615 381.612 45.7165 383.848 45.7165C385.552 45.7165 386.919 45.5567 387.948 45.2372C389.013 44.8822 389.794 44.403 390.291 43.7995C390.788 43.196 391.037 42.5037 391.037 41.7227C391.037 40.7287 390.646 39.9477 389.865 39.3797C389.084 38.7762 388.055 38.297 386.777 37.942C385.499 37.5515 384.079 37.1965 382.517 36.877C380.99 36.522 379.446 36.096 377.884 35.599C376.358 35.102 374.955 34.463 373.677 33.682C372.399 32.901 371.352 31.8715 370.536 30.5935C369.755 29.3155 369.364 27.6825 369.364 25.6945C369.364 23.5645 369.932 21.6297 371.068 19.8902C372.24 18.1152 373.979 16.713 376.287 15.6835C378.63 14.6185 381.558 14.086 385.073 14.086C387.416 14.086 389.723 14.37 391.995 14.938C394.267 15.4705 396.273 16.287 398.013 17.3875L395.35 23.9372C393.611 22.9432 391.871 22.2155 390.132 21.754C388.392 21.257 386.688 21.0085 385.02 21.0085C383.351 21.0085 381.984 21.2037 380.919 21.5942C379.854 21.9847 379.091 22.4995 378.63 23.1385C378.168 23.742 377.937 24.452 377.937 25.2685C377.937 26.227 378.328 27.008 379.109 27.6115C379.89 28.1795 380.919 28.641 382.197 28.996C383.475 29.351 384.878 29.706 386.404 30.061C387.966 30.416 389.51 30.8242 391.037 31.2857C392.599 31.7472 394.019 32.3685 395.297 33.1495C396.575 33.9305 397.604 34.96 398.385 36.238C399.202 37.516 399.61 39.1312 399.61 41.0837C399.61 43.1782 399.024 45.0952 397.853 46.8347C396.681 48.5742 394.924 49.9765 392.581 51.0415C390.274 52.1065 387.345 52.639 383.795 52.639ZM413.439 29.7415H431.384V36.451H413.439V29.7415ZM414.078 45.0775H434.366V52H405.505V14.725H433.674V21.6475H414.078V45.0775Z" fill="black"/>
</svg>
