<svg width="869" height="128" viewBox="0 0 869 128" fill="none" xmlns="http://www.w3.org/2000/svg">
<path d="M2 88.2871V47.1914L5.87695 53.3945L9.75391 59.5977V85.9609C9.75391 96.6668 18.4328 105.346 29.1387 105.346H116.758H118.309L97.6209 62.2463C94.3381 55.4072 84.9621 54.5085 80.44 60.5995L68.9403 76.089C60.9095 86.9059 44.5659 86.4346 37.1718 75.1729L2 21.6035V14.625H100.475C114.606 14.625 126.062 26.0811 126.062 40.2129V72.3916L118.309 55.7207V41.7637C118.309 31.0578 109.63 22.3789 98.9238 22.3789H12.8555L44.6878 70.4395C48.4841 76.1712 56.7782 76.5044 61.0221 71.0956L73.4464 55.2607C81.9645 44.4042 98.9214 46.27 104.875 58.7189L126.062 103.02V113.875H27.5879C13.4561 113.875 2 102.419 2 88.2871Z" fill="#4377F2"/>
<path d="M2 47.1914L3.31506 46.3695C2.9484 45.7828 2.23749 45.51 1.57248 45.7007C0.907467 45.8914 0.449219 46.4996 0.449219 47.1914H2ZM126.062 113.875V115.426C126.919 115.426 127.613 114.731 127.613 113.875H126.062ZM126.062 103.02H127.613C127.613 102.788 127.561 102.559 127.462 102.35L126.062 103.02ZM104.875 58.7189L106.274 58.0498L104.875 58.7189ZM118.309 105.346V106.896C118.842 106.896 119.337 106.623 119.621 106.172C119.905 105.72 119.937 105.155 119.707 104.675L118.309 105.346ZM97.6209 62.2463L99.0189 61.5752L97.6209 62.2463ZM9.75391 59.5977H11.3047V59.1529L11.069 58.7757L9.75391 59.5977ZM2 14.625V13.0742H0.449219V14.625H2ZM2 21.6035H0.449219V22.0671L0.70366 22.4546L2 21.6035ZM37.1718 75.1729L38.4681 74.3217L37.1718 75.1729ZM12.8555 22.3789V20.8281C12.2844 20.8281 11.7595 21.142 11.4893 21.6451C11.2191 22.1482 11.2472 22.7591 11.5626 23.2352L12.8555 22.3789ZM44.6878 70.4395L43.3949 71.2958L44.6878 70.4395ZM61.0221 71.0956L62.2421 72.0528L61.0221 71.0956ZM73.4464 55.2607L74.6664 56.2179L73.4464 55.2607ZM68.9403 76.089L67.6951 75.1646L68.9403 76.089ZM80.44 60.5995L79.1949 59.6751V59.6751L80.44 60.5995ZM126.062 72.3916L124.656 73.0456C124.963 73.7052 125.687 74.0629 126.397 73.9058C127.108 73.7487 127.613 73.119 127.613 72.3916H126.062ZM118.309 55.7207H116.758V56.0637L116.902 56.3747L118.309 55.7207ZM0.449219 47.1914V88.2871H3.55078V47.1914H0.449219ZM27.5879 115.426H126.062V112.324H27.5879V115.426ZM127.613 113.875V103.02H124.512V113.875H127.613ZM127.462 102.35L106.274 58.0498L103.476 59.388L124.663 103.689L127.462 102.35ZM119.707 104.675L99.0189 61.5752L96.2228 62.9173L116.911 106.017L119.707 104.675ZM118.309 103.795H116.758V106.896H118.309V103.795ZM116.758 103.795H29.1387V106.896H116.758V103.795ZM11.3047 85.9609V59.5977H8.20312V85.9609H11.3047ZM100.475 13.0742H2V16.1758H100.475V13.0742ZM0.449219 14.625V21.6035H3.55078V14.625H0.449219ZM0.70366 22.4546L35.8755 76.024L38.4681 74.3217L3.29634 20.7524L0.70366 22.4546ZM12.8555 23.9297H98.9238V20.8281H12.8555V23.9297ZM11.5626 23.2352L43.3949 71.2958L45.9807 69.5831L14.1484 21.5226L11.5626 23.2352ZM62.2421 72.0528L74.6664 56.2179L72.2263 54.3034L59.802 70.1383L62.2421 72.0528ZM70.1854 77.0134L81.6852 61.5239L79.1949 59.6751L67.6951 75.1646L70.1854 77.0134ZM11.069 58.7757L7.19201 52.5726L4.56189 54.2164L8.43885 60.4196L11.069 58.7757ZM7.19201 52.5726L3.31506 46.3695L0.68494 48.0133L4.56189 54.2164L7.19201 52.5726ZM124.512 40.2129V72.3916H127.613V40.2129H124.512ZM116.758 41.7637V55.7207H119.859V41.7637H116.758ZM116.902 56.3747L124.656 73.0456L127.469 71.7376L119.715 55.0667L116.902 56.3747ZM43.3949 71.2958C47.7753 77.9094 57.3454 78.2938 62.2421 72.0528L59.802 70.1383C56.2111 74.715 49.193 74.4331 45.9807 69.5831L43.3949 71.2958ZM35.8755 76.024C43.8611 88.1867 61.5122 88.6957 70.1854 77.0134L67.6951 75.1646C60.3068 85.1161 45.2707 84.6825 38.4681 74.3217L35.8755 76.024ZM100.475 16.1758C113.75 16.1758 124.512 26.9376 124.512 40.2129H127.613C127.613 25.2246 115.463 13.0742 100.475 13.0742V16.1758ZM29.1387 103.795C19.2892 103.795 11.3047 95.8104 11.3047 85.9609H8.20312C8.20312 97.5233 17.5763 106.896 29.1387 106.896V103.795ZM98.9238 23.9297C108.773 23.9297 116.758 31.9142 116.758 41.7637H119.859C119.859 30.2013 110.486 20.8281 98.9238 20.8281V23.9297ZM106.274 58.0498C99.8243 44.5635 81.4543 42.5422 72.2263 54.3034L74.6664 56.2179C82.4748 46.2662 98.0186 47.9765 103.476 59.388L106.274 58.0498ZM99.0189 61.5752C95.2312 53.684 84.4127 52.647 79.1949 59.6751L81.6852 61.5239C85.5116 56.37 93.4451 57.1305 96.2228 62.9173L99.0189 61.5752ZM0.449219 88.2871C0.449219 103.275 12.5996 115.426 27.5879 115.426V112.324C14.3126 112.324 3.55078 101.562 3.55078 88.2871H0.449219Z" fill="#4377F2"/>
<path d="M189.532 103V42.508H165.676V28.45H230.641V42.508H206.785V103H189.532ZM239.924 103V28.45H272.193C278.867 28.45 284.618 29.5505 289.446 31.7515C294.274 33.8815 298.002 36.97 300.629 41.017C303.256 45.064 304.569 49.892 304.569 55.501C304.569 61.039 303.256 65.8315 300.629 69.8785C298.002 73.8545 294.274 76.9075 289.446 79.0375C284.618 81.1675 278.867 82.2325 272.193 82.2325H249.509L257.177 74.671V103H239.924ZM287.316 103L268.679 75.949H287.103L305.954 103H287.316ZM257.177 76.588L249.509 68.494H271.235C276.56 68.494 280.536 67.358 283.163 65.086C285.79 62.743 287.103 59.548 287.103 55.501C287.103 51.383 285.79 48.188 283.163 45.916C280.536 43.644 276.56 42.508 271.235 42.508H249.509L257.177 34.3075V76.588ZM308.441 103L341.669 28.45H358.709L392.043 103H373.938L346.674 37.183H353.49L326.12 103H308.441ZM325.055 87.025L329.634 73.9255H367.974L372.66 87.025H325.055ZM434.415 104.278C428.664 104.278 423.304 103.355 418.334 101.509C413.435 99.592 409.175 96.894 405.554 93.415C401.933 89.936 399.093 85.8535 397.034 81.1675C395.046 76.4815 394.052 71.334 394.052 65.725C394.052 60.116 395.046 54.9685 397.034 50.2825C399.093 45.5965 401.933 41.514 405.554 38.035C409.246 34.556 413.541 31.8935 418.44 30.0475C423.339 28.1305 428.7 27.172 434.522 27.172C440.983 27.172 446.805 28.308 451.988 30.58C457.242 32.781 461.644 36.047 465.194 40.378L454.118 50.602C451.562 47.691 448.722 45.5255 445.598 44.1055C442.474 42.6145 439.066 41.869 435.374 41.869C431.895 41.869 428.7 42.437 425.789 43.573C422.878 44.709 420.357 46.342 418.227 48.472C416.097 50.602 414.429 53.1225 413.222 56.0335C412.086 58.9445 411.518 62.175 411.518 65.725C411.518 69.275 412.086 72.5055 413.222 75.4165C414.429 78.3275 416.097 80.848 418.227 82.978C420.357 85.108 422.878 86.741 425.789 87.877C428.7 89.013 431.895 89.581 435.374 89.581C439.066 89.581 442.474 88.871 445.598 87.451C448.722 85.96 451.562 83.7235 454.118 80.7415L465.194 90.9655C461.644 95.2965 457.242 98.598 451.988 100.87C446.805 103.142 440.947 104.278 434.415 104.278ZM492.287 85.96L491.329 66.0445L527.006 28.45H546.176L514.013 63.0625L504.428 73.2865L492.287 85.96ZM476.845 103V28.45H493.991V103H476.845ZM527.858 103L501.34 70.5175L512.629 58.27L547.987 103H527.858ZM569.308 103L544.919 28.45H562.811L584.005 94.48H575.059L597.211 28.45H613.186L634.486 94.48H625.859L647.585 28.45H664.093L639.704 103H621.173L602.323 45.064H607.222L587.839 103H569.308ZM691.215 103V72.541L695.156 82.978L662.354 28.45H680.672L705.806 70.3045H695.262L720.503 28.45H737.436L704.634 82.978L708.468 72.541V103H691.215ZM767.59 104.278C761.626 104.278 755.91 103.497 750.443 101.935C744.976 100.302 740.574 98.2075 737.237 95.6515L743.095 82.6585C746.29 84.9305 750.053 86.812 754.384 88.303C758.786 89.723 763.223 90.433 767.696 90.433C771.104 90.433 773.838 90.1135 775.897 89.4745C778.027 88.7645 779.589 87.806 780.583 86.599C781.577 85.392 782.074 84.0075 782.074 82.4455C782.074 80.4575 781.293 78.8955 779.731 77.7595C778.169 76.5525 776.11 75.594 773.554 74.884C770.998 74.103 768.158 73.393 765.034 72.754C761.981 72.044 758.892 71.192 755.768 70.198C752.715 69.204 749.911 67.926 747.355 66.364C744.799 64.802 742.704 62.743 741.071 60.187C739.509 57.631 738.728 54.365 738.728 50.389C738.728 46.129 739.864 42.2595 742.136 38.7805C744.479 35.2305 747.958 32.426 752.573 30.367C757.259 28.237 763.117 27.172 770.146 27.172C774.832 27.172 779.447 27.74 783.991 28.876C788.535 29.941 792.546 31.574 796.025 33.775L790.7 46.8745C787.221 44.8865 783.742 43.431 780.263 42.508C776.784 41.514 773.376 41.017 770.039 41.017C766.702 41.017 763.969 41.4075 761.839 42.1885C759.709 42.9695 758.182 43.999 757.259 45.277C756.336 46.484 755.875 47.904 755.875 49.537C755.875 51.454 756.656 53.016 758.218 54.223C759.78 55.359 761.839 56.282 764.395 56.992C766.951 57.702 769.755 58.412 772.808 59.122C775.932 59.832 779.021 60.6485 782.074 61.5715C785.198 62.4945 788.038 63.737 790.594 65.299C793.15 66.861 795.209 68.92 796.771 71.476C798.404 74.032 799.22 77.2625 799.22 81.1675C799.22 85.3565 798.049 89.1905 795.706 92.6695C793.363 96.1485 789.848 98.953 785.162 101.083C780.547 103.213 774.69 104.278 767.59 104.278ZM826.878 58.483H862.768V71.902H826.878V58.483ZM828.156 89.155H868.732V103H811.009V28.45H867.348V42.295H828.156V89.155Z" fill="black"/>
</svg>
