<svg width="3474" height="512" viewBox="0 0 3474 512" fill="none" xmlns="http://www.w3.org/2000/svg">
<path d="M7 353.148V188.766L22.5078 213.578L38.0156 238.391V343.844C38.0156 386.667 72.7311 421.383 115.555 421.383H466.031H472.234L389.483 248.985C376.353 221.629 338.848 218.034 320.76 242.398L274.761 304.356C242.638 347.624 177.263 345.738 147.687 300.691L7 86.4141V58.5H400.898C457.426 58.5 503.25 104.324 503.25 160.852V289.566L472.234 222.883V167.055C472.234 124.231 437.519 89.5156 394.695 89.5156H50.4219L177.751 281.758C192.937 304.685 226.113 306.017 243.088 284.382L292.786 221.043C326.858 177.617 394.686 185.08 418.501 234.875L503.25 412.078V455.5H109.352C52.8243 455.5 7 409.676 7 353.148Z" fill="#4377F2"/>
<path d="M7 188.766L12.2602 185.478C10.7936 183.131 7.94995 182.04 5.28991 182.803C2.62987 183.566 0.796875 185.998 0.796875 188.766H7ZM503.25 455.5V461.703C506.676 461.703 509.453 458.926 509.453 455.5H503.25ZM503.25 412.078H509.453C509.453 411.152 509.246 410.237 508.846 409.402L503.25 412.078ZM418.501 234.875L424.097 232.199L418.501 234.875ZM472.234 421.383V427.586C474.366 427.586 476.349 426.491 477.485 424.686C478.62 422.882 478.749 420.621 477.827 418.699L472.234 421.383ZM389.483 248.985L395.076 246.301L389.483 248.985ZM38.0156 238.391H44.2188V236.612L43.2759 235.103L38.0156 238.391ZM7 58.5V52.2969H0.796875V58.5H7ZM7 86.4141H0.796875V88.2685L1.81464 89.8186L7 86.4141ZM147.687 300.691L152.873 297.287L147.687 300.691ZM50.4219 89.5156V83.3125C48.1375 83.3125 46.038 84.568 44.9571 86.5804C43.8762 88.5928 43.9888 91.0365 45.2503 92.941L50.4219 89.5156ZM177.751 281.758L172.58 285.183L177.751 281.758ZM243.088 284.382L247.969 288.211L243.088 284.382ZM292.786 221.043L297.666 224.872L292.786 221.043ZM274.761 304.356L269.781 300.658L274.761 304.356ZM320.76 242.398L315.78 238.7V238.7L320.76 242.398ZM503.25 289.566L497.625 292.182C498.853 294.821 501.749 296.252 504.59 295.623C507.431 294.995 509.453 292.476 509.453 289.566H503.25ZM472.234 222.883H466.031V224.255L466.61 225.499L472.234 222.883ZM0.796875 188.766V353.148H13.2031V188.766H0.796875ZM109.352 461.703H503.25V449.297H109.352V461.703ZM509.453 455.5V412.078H497.047V455.5H509.453ZM508.846 409.402L424.097 232.199L412.905 237.552L497.654 414.754L508.846 409.402ZM477.827 418.699L395.076 246.301L383.891 251.669L466.642 424.067L477.827 418.699ZM472.234 415.18H466.031V427.586H472.234V415.18ZM466.031 415.18H115.555V427.586H466.031V415.18ZM44.2188 343.844V238.391H31.8125V343.844H44.2188ZM400.898 52.2969H7V64.7031H400.898V52.2969ZM0.796875 58.5V86.4141H13.2031V58.5H0.796875ZM1.81464 89.8186L142.502 304.096L152.873 297.287L12.1854 83.0095L1.81464 89.8186ZM50.4219 95.7188H394.695V83.3125H50.4219V95.7188ZM45.2503 92.941L172.58 285.183L182.923 278.333L55.5935 86.0903L45.2503 92.941ZM247.969 288.211L297.666 224.872L287.905 217.214L238.208 280.553L247.969 288.211ZM279.742 308.054L325.741 246.096L315.78 238.7L269.781 300.658L279.742 308.054ZM43.2759 235.103L27.7681 210.29L17.2476 216.866L32.7554 241.678L43.2759 235.103ZM27.7681 210.29L12.2602 185.478L1.73976 192.053L17.2476 216.866L27.7681 210.29ZM497.047 160.852V289.566H509.453V160.852H497.047ZM466.031 167.055V222.883H478.438V167.055H466.031ZM466.61 225.499L497.625 292.182L508.875 286.95L477.859 220.267L466.61 225.499ZM172.58 285.183C190.101 311.637 228.382 313.175 247.969 288.211L238.208 280.553C223.844 298.86 195.772 297.732 182.923 278.333L172.58 285.183ZM142.502 304.096C174.444 352.747 245.049 354.783 279.742 308.054L269.781 300.658C240.227 340.465 180.083 338.73 152.873 297.287L142.502 304.096ZM400.898 64.7031C454 64.7031 497.047 107.75 497.047 160.852H509.453C509.453 100.898 460.852 52.2969 400.898 52.2969V64.7031ZM115.555 415.18C76.1569 415.18 44.2188 383.241 44.2188 343.844H31.8125C31.8125 390.093 69.3052 427.586 115.555 427.586V415.18ZM394.695 95.7188C434.093 95.7188 466.031 127.657 466.031 167.055H478.438C478.438 120.805 440.945 83.3125 394.695 83.3125V95.7188ZM424.097 232.199C398.297 178.254 324.817 170.169 287.905 217.214L297.666 224.872C328.899 185.065 391.074 191.906 412.905 237.552L424.097 232.199ZM395.076 246.301C379.925 214.736 336.651 210.588 315.78 238.7L325.741 246.096C341.046 225.48 372.78 228.522 383.891 251.669L395.076 246.301ZM0.796875 353.148C0.796875 413.102 49.3985 461.703 109.352 461.703V449.297C56.2502 449.297 13.2031 406.25 13.2031 353.148H0.796875Z" fill="#4377F2"/>
<path d="M757.128 412V170.032H661.704V113.8H921.564V170.032H826.14V412H757.128ZM958.696 412V113.8H1087.77C1114.47 113.8 1137.47 118.202 1156.79 127.006C1176.1 135.526 1191.01 147.88 1201.52 164.068C1212.02 180.256 1217.28 199.568 1217.28 222.004C1217.28 244.156 1212.02 263.326 1201.52 279.514C1191.01 295.418 1176.1 307.63 1156.79 316.15C1137.47 324.67 1114.47 328.93 1087.77 328.93H997.036L1027.71 298.684V412H958.696ZM1148.27 412L1073.72 303.796H1147.41L1222.82 412H1148.27ZM1027.71 306.352L997.036 273.976H1083.94C1105.24 273.976 1121.14 269.432 1131.65 260.344C1142.16 250.972 1147.41 238.192 1147.41 222.004C1147.41 205.532 1142.16 192.752 1131.65 183.664C1121.14 174.576 1105.24 170.032 1083.94 170.032H997.036L1027.71 137.23V306.352ZM1232.76 412L1365.68 113.8H1433.84L1567.17 412H1494.75L1385.7 148.732H1412.96L1303.48 412H1232.76ZM1299.22 348.1L1317.54 295.702H1470.9L1489.64 348.1H1299.22ZM1736.66 417.112C1713.66 417.112 1692.22 413.42 1672.34 406.036C1652.74 398.368 1635.7 387.576 1621.22 373.66C1606.73 359.744 1595.37 343.414 1587.14 324.67C1579.18 305.926 1575.21 285.336 1575.21 262.9C1575.21 240.464 1579.18 219.874 1587.14 201.13C1595.37 182.386 1606.73 166.056 1621.22 152.14C1635.98 138.224 1653.17 127.574 1672.76 120.19C1692.36 112.522 1713.8 108.688 1737.09 108.688C1762.93 108.688 1786.22 113.232 1806.95 122.32C1827.97 131.124 1845.58 144.188 1859.78 161.512L1815.47 202.408C1805.25 190.764 1793.89 182.102 1781.39 176.422C1768.9 170.458 1755.26 167.476 1740.5 167.476C1726.58 167.476 1713.8 169.748 1702.16 174.292C1690.51 178.836 1680.43 185.368 1671.91 193.888C1663.39 202.408 1656.72 212.49 1651.89 224.134C1647.34 235.778 1645.07 248.7 1645.07 262.9C1645.07 277.1 1647.34 290.022 1651.89 301.666C1656.72 313.31 1663.39 323.392 1671.91 331.912C1680.43 340.432 1690.51 346.964 1702.16 351.508C1713.8 356.052 1726.58 358.324 1740.5 358.324C1755.26 358.324 1768.9 355.484 1781.39 349.804C1793.89 343.84 1805.25 334.894 1815.47 322.966L1859.78 363.862C1845.58 381.186 1827.97 394.392 1806.95 403.48C1786.22 412.568 1762.79 417.112 1736.66 417.112ZM1968.15 343.84L1964.32 264.178L2107.03 113.8H2183.71L2055.05 252.25L2016.71 293.146L1968.15 343.84ZM1906.38 412V113.8H1974.97V412H1906.38ZM2110.43 412L2004.36 282.07L2049.52 233.08L2190.95 412H2110.43ZM2276.23 412L2178.68 113.8H2250.24L2335.02 377.92H2299.23L2387.84 113.8H2451.74L2536.94 377.92H2502.44L2589.34 113.8H2655.37L2557.82 412H2483.69L2408.29 180.256H2427.89L2350.35 412H2276.23ZM2763.86 412V290.164L2779.62 331.912L2648.41 113.8H2721.69L2822.22 281.218H2780.05L2881.01 113.8H2948.74L2817.54 331.912L2832.87 290.164V412H2763.86ZM3069.36 417.112C3045.5 417.112 3022.64 413.988 3000.77 407.74C2978.91 401.208 2961.3 392.83 2947.95 382.606L2971.38 330.634C2984.16 339.722 2999.21 347.248 3016.54 353.212C3034.14 358.892 3051.89 361.732 3069.79 361.732C3083.42 361.732 3094.35 360.454 3102.59 357.898C3111.11 355.058 3117.36 351.224 3121.33 346.396C3125.31 341.568 3127.3 336.03 3127.3 329.782C3127.3 321.83 3124.17 315.582 3117.92 311.038C3111.68 306.21 3103.44 302.376 3093.22 299.536C3082.99 296.412 3071.63 293.572 3059.14 291.016C3046.92 288.176 3034.57 284.768 3022.07 280.792C3009.86 276.816 2998.64 271.704 2988.42 265.456C2978.2 259.208 2969.82 250.972 2963.29 240.748C2957.04 230.524 2953.91 217.46 2953.91 201.556C2953.91 184.516 2958.46 169.038 2967.55 155.122C2976.92 140.922 2990.83 129.704 3009.29 121.468C3028.04 112.948 3051.47 108.688 3079.58 108.688C3098.33 108.688 3116.79 110.96 3134.96 115.504C3153.14 119.764 3169.19 126.296 3183.1 135.1L3161.8 187.498C3147.89 179.546 3133.97 173.724 3120.05 170.032C3106.14 166.056 3092.51 164.068 3079.16 164.068C3065.81 164.068 3054.88 165.63 3046.36 168.754C3037.84 171.878 3031.73 175.996 3028.04 181.108C3024.35 185.936 3022.5 191.616 3022.5 198.148C3022.5 205.816 3025.62 212.064 3031.87 216.892C3038.12 221.436 3046.36 225.128 3056.58 227.968C3066.8 230.808 3078.02 233.648 3090.23 236.488C3102.73 239.328 3115.08 242.594 3127.3 246.286C3139.79 249.978 3151.15 254.948 3161.38 261.196C3171.6 267.444 3179.84 275.68 3186.08 285.904C3192.62 296.128 3195.88 309.05 3195.88 324.67C3195.88 341.426 3191.2 356.762 3181.82 370.678C3172.45 384.594 3158.39 395.812 3139.65 404.332C3121.19 412.852 3097.76 417.112 3069.36 417.112ZM3306.51 233.932H3450.07V287.608H3306.51V233.932ZM3311.62 356.62H3473.93V412H3243.04V113.8H3468.39V169.18H3311.62V356.62Z" fill="black"/>
</svg>
