<svg width="218" height="32" viewBox="0 0 218 32" fill="none" xmlns="http://www.w3.org/2000/svg">
<path d="M1 22.0718V11.7979L1.96924 13.3486L2.93848 14.8994V21.4902C2.93848 24.1667 5.10819 26.3364 7.78467 26.3364H29.6895H30.0771L24.9052 15.5616C24.0845 13.8518 21.7405 13.6271 20.61 15.1499L17.7351 19.0222C15.7274 21.7265 11.6415 21.6087 9.79295 18.7932L1 5.40088V3.65625H25.6187C29.1516 3.65625 32.0156 6.52027 32.0156 10.0532V18.0979L30.0771 13.9302V10.4409C30.0771 7.76444 27.9074 5.59473 25.231 5.59473H3.71387L11.6719 17.6099C12.621 19.0428 14.6946 19.1261 15.7555 17.7739L18.8616 13.8152C20.9911 11.101 25.2304 11.5675 26.7188 14.6797L32.0156 25.7549V28.4688H7.39697C3.86402 28.4688 1 25.6047 1 22.0718Z" fill="#4377F2"/>
<path d="M1 11.7979L1.32876 11.5924C1.2371 11.4457 1.05937 11.3775 0.893119 11.4252C0.726867 11.4729 0.612305 11.6249 0.612305 11.7979H1ZM32.0156 28.4688V28.8564C32.2297 28.8564 32.4033 28.6829 32.4033 28.4688H32.0156ZM32.0156 25.7549H32.4033C32.4033 25.697 32.3904 25.6398 32.3654 25.5876L32.0156 25.7549ZM26.7188 14.6797L27.0686 14.5124L26.7188 14.6797ZM30.0771 26.3364V26.7241C30.2104 26.7241 30.3343 26.6557 30.4053 26.5429C30.4763 26.4301 30.4843 26.2888 30.4267 26.1687L30.0771 26.3364ZM24.9052 15.5616L25.2547 15.3938L24.9052 15.5616ZM2.93848 14.8994H3.32617V14.7882L3.26724 14.6939L2.93848 14.8994ZM1 3.65625V3.26855H0.612305V3.65625H1ZM1 5.40088H0.612305V5.51678L0.675915 5.61366L1 5.40088ZM9.79295 18.7932L10.117 18.5804L9.79295 18.7932ZM3.71387 5.59473V5.20703C3.5711 5.20703 3.43988 5.2855 3.37232 5.41128C3.30476 5.53705 3.3118 5.68978 3.39064 5.80881L3.71387 5.59473ZM11.6719 17.6099L11.3487 17.824L11.6719 17.6099ZM15.7555 17.7739L16.0605 18.0132L15.7555 17.7739ZM18.8616 13.8152L19.1666 14.0545L18.8616 13.8152ZM17.7351 19.0222L17.4238 18.7911L17.7351 19.0222ZM20.61 15.1499L20.2987 14.9188V14.9188L20.61 15.1499ZM32.0156 18.0979L31.6641 18.2614C31.7408 18.4263 31.9218 18.5157 32.0994 18.4764C32.2769 18.4372 32.4033 18.2798 32.4033 18.0979H32.0156ZM30.0771 13.9302H29.6895V14.0159L29.7256 14.0937L30.0771 13.9302ZM0.612305 11.7979V22.0718H1.3877V11.7979H0.612305ZM7.39697 28.8564H32.0156V28.0811H7.39697V28.8564ZM32.4033 28.4688V25.7549H31.6279V28.4688H32.4033ZM32.3654 25.5876L27.0686 14.5124L26.3691 14.847L31.6659 25.9222L32.3654 25.5876ZM30.4267 26.1687L25.2547 15.3938L24.5557 15.7293L29.7276 26.5042L30.4267 26.1687ZM30.0771 25.9487H29.6895V26.7241H30.0771V25.9487ZM29.6895 25.9487H7.78467V26.7241H29.6895V25.9487ZM3.32617 21.4902V14.8994H2.55078V21.4902H3.32617ZM25.6187 3.26855H1V4.04395H25.6187V3.26855ZM0.612305 3.65625V5.40088H1.3877V3.65625H0.612305ZM0.675915 5.61366L9.46886 19.006L10.117 18.5804L1.32408 5.1881L0.675915 5.61366ZM3.71387 5.98242H25.231V5.20703H3.71387V5.98242ZM3.39064 5.80881L11.3487 17.824L11.9952 17.3958L4.03709 5.38064L3.39064 5.80881ZM16.0605 18.0132L19.1666 14.0545L18.5566 13.5758L15.4505 17.5346L16.0605 18.0132ZM18.0464 19.2533L20.9213 15.381L20.2987 14.9188L17.4238 18.7911L18.0464 19.2533ZM3.26724 14.6939L2.298 13.1432L1.64047 13.5541L2.60971 15.1049L3.26724 14.6939ZM2.298 13.1432L1.32876 11.5924L0.671235 12.0033L1.64047 13.5541L2.298 13.1432ZM31.6279 10.0532V18.0979H32.4033V10.0532H31.6279ZM29.6895 10.4409V13.9302H30.4648V10.4409H29.6895ZM29.7256 14.0937L31.6641 18.2614L32.3672 17.9344L30.4287 13.7667L29.7256 14.0937ZM11.3487 17.824C12.4438 19.4773 14.8364 19.5734 16.0605 18.0132L15.4505 17.5346C14.5528 18.6787 12.7983 18.6083 11.9952 17.3958L11.3487 17.824ZM9.46886 19.006C11.4653 22.0467 15.878 22.1739 18.0464 19.2533L17.4238 18.7911C15.5767 21.279 11.8177 21.1706 10.117 18.5804L9.46886 19.006ZM25.6187 4.04395C28.9375 4.04395 31.6279 6.73439 31.6279 10.0532H32.4033C32.4033 6.30615 29.3657 3.26855 25.6187 3.26855V4.04395ZM7.78467 25.9487C5.32231 25.9487 3.32617 23.9526 3.32617 21.4902H2.55078C2.55078 24.3808 4.89407 26.7241 7.78467 26.7241V25.9487ZM25.231 5.98242C27.6933 5.98242 29.6895 7.97856 29.6895 10.4409H30.4648C30.4648 7.55032 28.1216 5.20703 25.231 5.20703V5.98242ZM27.0686 14.5124C25.4561 11.1409 20.8636 10.6355 18.5566 13.5758L19.1666 14.0545C21.1187 11.5665 25.0046 11.9941 26.3691 14.847L27.0686 14.5124ZM25.2547 15.3938C24.3078 13.421 21.6032 13.1618 20.2987 14.9188L20.9213 15.381C21.8779 14.0925 23.8613 14.2826 24.5557 15.7293L25.2547 15.3938ZM0.612305 22.0718C0.612305 25.8188 3.6499 28.8564 7.39697 28.8564V28.0811C4.07814 28.0811 1.3877 25.3906 1.3877 22.0718H0.612305Z" fill="#4377F2"/>
<path d="M47.883 26V10.877H41.919V7.3625H58.1603V10.877H52.1963V26H47.883ZM60.481 26V7.3625H68.5484C70.2169 7.3625 71.6546 7.63762 72.8616 8.18787C74.0686 8.72037 75.0005 9.4925 75.6572 10.5042C76.314 11.516 76.6424 12.723 76.6424 14.1252C76.6424 15.5097 76.314 16.7079 75.6572 17.7196C75.0005 18.7136 74.0686 19.4769 72.8616 20.0094C71.6546 20.5419 70.2169 20.8081 68.5484 20.8081H62.8772L64.7942 18.9177V26H60.481ZM72.3291 26L67.6697 19.2372H72.2759L76.9885 26H72.3291ZM64.7942 19.397L62.8772 17.3735H68.3087C69.64 17.3735 70.634 17.0895 71.2907 16.5215C71.9475 15.9357 72.2759 15.137 72.2759 14.1252C72.2759 13.0957 71.9475 12.297 71.2907 11.729C70.634 11.161 69.64 10.877 68.3087 10.877H62.8772L64.7942 8.82687V19.397ZM77.6102 26L85.9172 7.3625H90.1772L98.5109 26H93.9846L87.1686 9.54575H88.8726L82.03 26H77.6102ZM81.7637 22.0062L82.9086 18.7314H92.4936L93.6651 22.0062H81.7637ZM109.104 26.3195C107.666 26.3195 106.326 26.0887 105.083 25.6272C103.859 25.148 102.794 24.4735 101.888 23.6037C100.983 22.734 100.273 21.7134 99.7585 20.5419C99.2615 19.3704 99.013 18.0835 99.013 16.6812C99.013 15.279 99.2615 13.9921 99.7585 12.8206C100.273 11.6491 100.983 10.6285 101.888 9.75875C102.811 8.889 103.885 8.22337 105.11 7.76187C106.335 7.28262 107.675 7.043 109.13 7.043C110.746 7.043 112.201 7.327 113.497 7.895C114.81 8.44525 115.911 9.26175 116.798 10.3445L114.029 12.9005C113.39 12.1727 112.68 11.6314 111.899 11.2764C111.118 10.9036 110.266 10.7172 109.343 10.7172C108.474 10.7172 107.675 10.8592 106.947 11.1432C106.219 11.4272 105.589 11.8355 105.057 12.368C104.524 12.9005 104.107 13.5306 103.805 14.2584C103.521 14.9861 103.379 15.7937 103.379 16.6812C103.379 17.5687 103.521 18.3764 103.805 19.1041C104.107 19.8319 104.524 20.462 105.057 20.9945C105.589 21.527 106.219 21.9352 106.947 22.2192C107.675 22.5032 108.474 22.6452 109.343 22.6452C110.266 22.6452 111.118 22.4677 111.899 22.1127C112.68 21.74 113.39 21.1809 114.029 20.4354L116.798 22.9914C115.911 24.0741 114.81 24.8995 113.497 25.4675C112.201 26.0355 110.737 26.3195 109.104 26.3195ZM123.572 21.74L123.332 16.7611L132.252 7.3625H137.044L129.003 16.0156L126.607 18.5716L123.572 21.74ZM119.711 26V7.3625H123.998V26H119.711ZM132.465 26L125.835 17.8794L128.657 14.8175L137.497 26H132.465ZM142.827 26L136.73 7.3625H141.203L146.501 23.87H144.265L149.803 7.3625H153.796L159.121 23.87H156.965L162.396 7.3625H166.523L160.426 26H155.793L151.081 11.516H152.305L147.46 26H142.827ZM173.304 26V18.3852L174.289 20.9945L166.088 7.3625H170.668L176.951 17.8261H174.316L180.626 7.3625H184.859L176.659 20.9945L177.617 18.3852V26H173.304ZM192.397 26.3195C190.906 26.3195 189.478 26.1242 188.111 25.7337C186.744 25.3255 185.644 24.8019 184.809 24.1629L186.274 20.9146C187.072 21.4826 188.013 21.953 189.096 22.3257C190.196 22.6807 191.306 22.8582 192.424 22.8582C193.276 22.8582 193.959 22.7784 194.474 22.6186C195.007 22.4411 195.397 22.2015 195.646 21.8997C195.894 21.598 196.018 21.2519 196.018 20.8614C196.018 20.3644 195.823 19.9739 195.433 19.6899C195.042 19.3881 194.527 19.1485 193.888 18.971C193.249 18.7757 192.539 18.5982 191.758 18.4385C190.995 18.261 190.223 18.048 189.442 17.7995C188.679 17.551 187.978 17.2315 187.339 16.841C186.7 16.4505 186.176 15.9357 185.768 15.2967C185.377 14.6577 185.182 13.8412 185.182 12.8472C185.182 11.7822 185.466 10.8149 186.034 9.94512C186.62 9.05762 187.49 8.3565 188.643 7.84175C189.815 7.30925 191.279 7.043 193.036 7.043C194.208 7.043 195.362 7.185 196.498 7.469C197.634 7.73525 198.637 8.1435 199.506 8.69375L198.175 11.9686C197.305 11.4716 196.436 11.1077 195.566 10.877C194.696 10.6285 193.844 10.5042 193.01 10.5042C192.176 10.5042 191.492 10.6019 190.96 10.7971C190.427 10.9924 190.046 11.2497 189.815 11.5692C189.584 11.871 189.469 12.226 189.469 12.6342C189.469 13.1135 189.664 13.504 190.054 13.8057C190.445 14.0897 190.96 14.3205 191.599 14.498C192.238 14.6755 192.939 14.853 193.702 15.0305C194.483 15.208 195.255 15.4121 196.018 15.6429C196.799 15.8736 197.509 16.1842 198.148 16.5747C198.787 16.9652 199.302 17.48 199.693 18.119C200.101 18.758 200.305 19.5656 200.305 20.5419C200.305 21.5891 200.012 22.5476 199.426 23.4174C198.841 24.2871 197.962 24.9882 196.791 25.5207C195.637 26.0532 194.172 26.3195 192.397 26.3195ZM207.219 14.8707H216.192V18.2255H207.219V14.8707ZM207.539 22.5387H217.683V26H203.252V7.3625H217.337V10.8237H207.539V22.5387Z" fill="black"/>
</svg>
